# xmcd
# 
# Track frame offsets:
#     150
#     21957
#     31100
#     44675
#     60475
#     80030
#     101560
#     114380
#     132137
#     158262
#     180540
#     194042
#     210142
#     222422
#     235255
#     255105
#     293095
# 
# Disc length: 4440
# 
# Revision: 34
# Processed by: cddbd v1.5.2PL0 Copyright (c) Steve Scherf et al.
# Submitted via: fre:ac v1.0.31
# 
DISCID=e0115611
DTITLE=QUEEN - Jewels {Japan TOCP-67218}
DYEAR=2004
DGENRE=Rock
TTITLE0=I Was Born To Love You
TTITLE1=We Will Rock You
TTITLE2=We Are The Champions
TTITLE3=Don't Stop Me Now
TTITLE4=Too Much Love Will Kill You
TTITLE5=Let Me Live
TTITLE6=You're My Best Friend
TTITLE7=Under Pressure
TTITLE8=Radio Ga Ga
TTITLE9=Somebody To Love
TTITLE10=Killer Queen
TTITLE11=Another One Bites The Dust
TTITLE12=Crazy Little Thing Called Love
TTITLE13=Flash
TTITLE14=The Show Must Go On
TTITLE15=Bohemian Rhapsody
TTITLE16=Date
EXTD=YEAR: 2004
EXTT0=
EXTT1=
EXTT2=
EXTT3=
EXTT4=
EXTT5=
EXTT6=
EXTT7=
EXTT8=
EXTT9=
EXTT10=
EXTT11=
EXTT12=
EXTT13=
EXTT14=
EXTT15=
EXTT16=
PLAYORDER=
